<?xml version="1.0" encoding="UTF-8"?><svg xmlns="http://www.w3.org/2000/svg" xmlns:xlink="http://www.w3.org/1999/xlink" width="375" zoomAndPan="magnify" viewBox="0 0 375 374.999991" height="374.999991" preserveAspectRatio="xMidYMid meet" version="1.0"><defs><clipPath id="clip-0"><path d="M 4.21875 237 L 228 237 L 228 375 L 4.21875 375 Z M 4.21875 237 " clip-rule="nonzero"/></clipPath><clipPath id="clip-1"><path d="M 4.21875 237 L 190 237 L 190 375 L 4.21875 375 Z M 4.21875 237 " clip-rule="nonzero"/></clipPath></defs><path fill="rgb(100%, 100%, 100%)" d="M 244.816406 130.800781 C 244.296875 129.953125 243.777344 129.09375 243.253906 128.253906 C 234.976562 114.75 226.203125 101.152344 218.472656 87.066406 C 140.140625 127.722656 83.371094 208.824219 80.722656 308.242188 C 103.050781 308.265625 125.382812 308.292969 147.714844 308.320312 C 144.371094 234.324219 183.839844 167.140625 244.816406 130.800781 " fill-opacity="1" fill-rule="nonzero"/><path fill="rgb(72.938538%, 85.488892%, 90.19928%)" d="M 238.308594 120.246094 C 233.753906 112.910156 229.144531 105.519531 224.722656 98.019531 C 154.640625 134.128906 104.417969 206.71875 103.007812 294.5 C 114.4375 294.515625 125.867188 294.527344 137.300781 294.542969 C 135.617188 219.753906 176.988281 154.164062 238.308594 120.246094 " fill-opacity="1" fill-rule="nonzero"/><g clip-path="url(#clip-0)"><path fill="rgb(100%, 100%, 100%)" d="M 227.117188 283.132812 C 227.097656 268.257812 215.023438 256.222656 200.136719 256.234375 C 196.949219 256.242188 193.90625 256.828125 191.0625 257.847656 C 188.023438 246.28125 177.519531 237.75 164.996094 237.761719 C 152.828125 237.777344 142.5625 245.863281 139.234375 256.945312 C 133.222656 251.339844 125.179688 247.886719 116.308594 247.898438 C 101.058594 247.917969 88.214844 258.105469 84.144531 272.03125 C 78.003906 264.039062 68.355469 258.871094 57.496094 258.882812 C 38.949219 258.910156 23.9375 273.953125 23.964844 292.488281 C 23.972656 298.835938 25.78125 304.75 28.851562 309.808594 C 15.070312 311.015625 4.273438 322.570312 4.292969 336.652344 C 4.308594 351.527344 16.386719 363.566406 31.269531 363.550781 C 37.207031 363.542969 42.679688 361.589844 47.128906 358.332031 C 51.164062 368.140625 60.808594 375.046875 72.074219 375.03125 C 81.292969 375.019531 89.410156 370.382812 94.265625 363.324219 C 99.128906 370.371094 107.261719 374.984375 116.472656 374.976562 C 127.242188 374.960938 136.503906 368.621094 140.808594 359.488281 C 145.125 368.605469 154.402344 374.925781 165.171875 374.910156 C 180.054688 374.890625 192.101562 362.820312 192.085938 347.949219 C 192.082031 347.511719 192.042969 347.085938 192.019531 346.648438 C 194.617188 347.476562 197.382812 347.9375 200.253906 347.933594 C 215.136719 347.910156 227.183594 335.839844 227.167969 320.964844 C 227.15625 313.59375 224.175781 306.917969 219.367188 302.0625 C 224.164062 297.1875 227.128906 290.507812 227.117188 283.132812 " fill-opacity="1" fill-rule="nonzero"/></g><g clip-path="url(#clip-1)"><path fill="rgb(72.938538%, 85.488892%, 90.19928%)" d="M 185.511719 359.03125 C 176.976562 359.039062 169.621094 354.027344 166.1875 346.800781 C 162.78125 354.039062 155.4375 359.066406 146.90625 359.078125 C 139.597656 359.085938 133.152344 355.425781 129.289062 349.839844 C 125.445312 355.433594 119.011719 359.113281 111.707031 359.125 C 102.769531 359.136719 95.121094 353.65625 91.925781 345.882812 C 88.394531 348.464844 84.058594 350.011719 79.351562 350.019531 C 67.558594 350.035156 57.976562 340.488281 57.964844 328.695312 C 57.945312 317.53125 66.511719 308.371094 77.433594 307.414062 C 74.992188 303.402344 73.566406 298.714844 73.558594 293.679688 C 73.539062 278.984375 85.445312 267.0625 100.140625 267.042969 C 108.757812 267.03125 116.398438 271.125 121.269531 277.460938 C 124.5 266.421875 134.679688 258.347656 146.769531 258.332031 C 153.804688 258.320312 160.179688 261.058594 164.945312 265.5 C 167.585938 256.714844 175.722656 250.304688 185.367188 250.292969 C 186.214844 250.292969 187.035156 250.359375 187.847656 250.453125 C 183.089844 242.832031 174.652344 237.753906 164.996094 237.761719 C 152.828125 237.777344 142.5625 245.863281 139.234375 256.945312 C 133.222656 251.339844 125.179688 247.886719 116.308594 247.898438 C 101.058594 247.917969 88.214844 258.105469 84.144531 272.03125 C 78.003906 264.039062 68.355469 258.871094 57.496094 258.882812 C 38.949219 258.910156 23.9375 273.953125 23.964844 292.488281 C 23.972656 298.835938 25.78125 304.75 28.851562 309.808594 C 15.070312 311.015625 4.273438 322.570312 4.292969 336.652344 C 4.308594 351.527344 16.386719 363.566406 31.269531 363.550781 C 37.207031 363.542969 42.679688 361.589844 47.128906 358.332031 C 51.164062 368.140625 60.808594 375.046875 72.074219 375.03125 C 81.292969 375.019531 89.410156 370.382812 94.265625 363.324219 C 99.128906 370.371094 107.261719 374.984375 116.472656 374.976562 C 127.242188 374.960938 136.503906 368.621094 140.808594 359.488281 C 145.125 368.605469 154.402344 374.925781 165.171875 374.910156 C 176.285156 374.898438 185.804688 368.164062 189.914062 358.558594 C 188.496094 358.863281 187.023438 359.027344 185.511719 359.03125 " fill-opacity="1" fill-rule="nonzero"/></g><path fill="rgb(96.859741%, 58.81958%, 10.978699%)" d="M 195.011719 161.839844 L 184.621094 146.933594 L 184.558594 146.84375 L 174.152344 131.941406 C 174.152344 131.941406 113.855469 137.347656 109.625 199.058594 L 109.550781 199.109375 L 109.617188 199.128906 L 109.605469 199.207031 L 109.691406 199.148438 C 169.085938 216.519531 195.011719 161.839844 195.011719 161.839844 " fill-opacity="1" fill-rule="nonzero"/><path fill="rgb(98.039246%, 74.119568%, 9.01947%)" d="M 191.730469 157.128906 L 184.503906 146.773438 L 184.460938 146.710938 L 177.234375 136.363281 C 177.234375 136.363281 135.351562 140.121094 132.417969 182.980469 L 132.355469 183.019531 L 132.40625 183.027344 L 132.402344 183.082031 L 132.457031 183.042969 C 173.710938 195.109375 191.730469 157.128906 191.730469 157.128906 " fill-opacity="1" fill-rule="nonzero"/><path fill="rgb(92.939758%, 22.349548%, 27.839661%)" d="M 183.277344 114.21875 L 172.878906 129.144531 C 172.878906 129.144531 178.617188 150.980469 197.191406 164.003906 L 214.808594 159.410156 L 183.277344 114.21875 " fill-opacity="1" fill-rule="nonzero"/><path fill="rgb(94.509888%, 90.979004%, 86.669922%)" d="M 367.207031 39.796875 C 367.207031 39.796875 370.949219 24.742188 367.324219 19.542969 C 363.703125 14.351562 348.269531 12.660156 348.269531 12.660156 C 348.269531 12.660156 262.59375 0.714844 194.679688 87.9375 L 178.40625 111.292969 C 178.40625 111.292969 184.46875 146.96875 215.871094 164.988281 L 243.421875 157.800781 C 348.789062 124.273438 367.207031 39.796875 367.207031 39.796875 " fill-opacity="1" fill-rule="nonzero"/><path fill="rgb(86.669922%, 82.348633%, 64.709473%)" d="M 227.503906 135.710938 L 223.820312 130.429688 L 231.363281 125.523438 C 229.902344 128.847656 228.628906 132.253906 227.503906 135.710938 M 214.792969 117.492188 L 209.625 110.082031 C 209.625 110.082031 209.628906 110.078125 209.628906 110.078125 L 194.449219 88.332031 C 194.871094 87.753906 195.390625 87.058594 196.007812 86.25 C 236.589844 35.074219 283.230469 18.804688 314.082031 13.988281 C 314.097656 14.1875 314.882812 23.628906 320.257812 35.460938 C 312.824219 39.75 305.582031 44.375 298.597656 49.332031 C 292.785156 45.800781 286.121094 43.957031 279.386719 43.957031 C 272.109375 43.957031 264.757812 46.109375 258.335938 50.582031 C 248.0625 57.738281 242.554688 69.1875 242.554688 80.824219 C 242.550781 87.011719 244.109375 93.253906 247.328125 98.933594 C 244.652344 102.636719 242.105469 106.4375 239.679688 110.316406 C 239.601562 110.195312 239.523438 110.070312 239.4375 109.949219 C 237.804688 107.609375 235.191406 106.355469 232.539062 106.355469 C 230.878906 106.355469 229.203125 106.84375 227.738281 107.867188 L 214.792969 117.492188 M 178.40625 111.292969 L 193.140625 90.144531 L 193.144531 90.144531 L 178.40625 111.292969 " fill-opacity="1" fill-rule="nonzero"/><path fill="rgb(92.939758%, 22.349548%, 27.839661%)" d="M 300.5 111.023438 C 283.804688 122.65625 260.824219 118.5625 249.191406 101.875 C 237.539062 85.183594 241.636719 62.21875 258.335938 50.582031 C 275.035156 38.945312 298.015625 43.042969 309.652344 59.734375 C 321.300781 76.421875 317.195312 99.386719 300.5 111.023438 " fill-opacity="1" fill-rule="nonzero"/><path fill="rgb(70.588684%, 67.059326%, 64.309692%)" d="M 279.453125 117.648438 C 267.808594 117.648438 256.351562 112.148438 249.191406 101.875 C 248.515625 100.914062 247.898438 99.929688 247.328125 98.933594 C 247.898438 99.929688 248.515625 100.914062 249.191406 101.875 C 256.351562 112.148438 267.808594 117.644531 279.453125 117.644531 C 285.816406 117.644531 292.238281 116.003906 298.046875 112.601562 C 292.238281 116.003906 285.820312 117.648438 279.453125 117.648438 " fill-opacity="1" fill-rule="nonzero"/><path fill="rgb(69.018555%, 16.079712%, 19.60907%)" d="M 279.453125 117.644531 C 267.808594 117.644531 256.351562 112.148438 249.191406 101.875 C 248.515625 100.914062 247.898438 99.929688 247.328125 98.933594 C 244.109375 93.253906 242.550781 87.011719 242.554688 80.824219 C 242.554688 69.1875 248.0625 57.738281 258.335938 50.582031 C 264.757812 46.109375 272.105469 43.960938 279.378906 43.960938 C 287.582031 43.960938 295.691406 46.691406 302.28125 51.890625 C 298.609375 51.960938 294.980469 52.539062 291.507812 53.78125 C 287.691406 52.082031 283.558594 51.203125 279.390625 51.203125 C 273.546875 51.203125 267.644531 52.933594 262.488281 56.523438 C 249.066406 65.871094 245.777344 84.324219 255.132812 97.730469 C 260.886719 105.984375 270.085938 110.402344 279.441406 110.402344 C 283.007812 110.402344 286.605469 109.761719 290.035156 108.441406 C 292.476562 110.15625 295.1875 111.597656 298.046875 112.601562 C 292.238281 116.003906 285.816406 117.644531 279.453125 117.644531 " fill-opacity="1" fill-rule="nonzero"/><path fill="rgb(69.018555%, 16.079712%, 19.60907%)" d="M 290.035156 108.441406 C 289.273438 107.90625 288.542969 107.347656 287.84375 106.761719 C 287.765625 106.699219 287.691406 106.636719 287.617188 106.570312 C 290.144531 105.765625 292.597656 104.574219 294.886719 102.976562 C 307.140625 94.441406 310.148438 77.59375 301.601562 65.34375 C 298.175781 60.429688 293.414062 57.003906 288.152344 55.214844 C 289.25 54.664062 290.371094 54.1875 291.507812 53.78125 C 296.257812 55.898438 300.515625 59.296875 303.707031 63.875 C 313.0625 77.28125 309.761719 95.734375 296.355469 105.078125 C 294.347656 106.480469 292.226562 107.601562 290.035156 108.441406 " fill-opacity="1" fill-rule="nonzero"/><path fill="rgb(52.549744%, 11.759949%, 14.118958%)" d="M 279.441406 110.402344 C 270.085938 110.402344 260.886719 105.984375 255.132812 97.730469 C 245.777344 84.324219 249.066406 65.871094 262.488281 56.523438 C 267.644531 52.933594 273.546875 51.203125 279.390625 51.203125 C 283.558594 51.203125 287.691406 52.082031 291.507812 53.78125 C 290.371094 54.1875 289.25 54.664062 288.152344 55.214844 C 285.335938 54.257812 282.371094 53.765625 279.394531 53.765625 C 274.058594 53.765625 268.664062 55.347656 263.953125 58.628906 C 256.410156 63.882812 252.375 72.28125 252.371094 80.820312 C 252.371094 86.160156 253.945312 91.554688 257.230469 96.265625 C 257.242188 96.28125 257.25 96.292969 257.261719 96.308594 C 257.640625 96.851562 258.039062 97.375 258.449219 97.882812 C 258.449219 97.886719 258.449219 97.886719 258.449219 97.886719 C 258.464844 97.898438 258.472656 97.910156 258.480469 97.917969 C 258.484375 97.925781 258.492188 97.929688 258.496094 97.933594 C 258.5 97.945312 258.503906 97.949219 258.507812 97.953125 C 263.792969 104.402344 271.558594 107.835938 279.441406 107.835938 C 282.1875 107.835938 284.945312 107.421875 287.617188 106.570312 C 287.691406 106.636719 287.765625 106.699219 287.84375 106.761719 C 288.542969 107.347656 289.273438 107.90625 290.035156 108.441406 C 286.605469 109.761719 283.007812 110.402344 279.441406 110.402344 " fill-opacity="1" fill-rule="nonzero"/><path fill="rgb(30.589294%, 76.469421%, 70.588684%)" d="M 294.886719 102.976562 C 282.636719 111.519531 265.773438 108.511719 257.230469 96.265625 C 248.691406 84.019531 251.695312 67.167969 263.953125 58.628906 C 276.203125 50.085938 293.0625 53.09375 301.601562 65.34375 C 310.148438 77.59375 307.140625 94.441406 294.886719 102.976562 " fill-opacity="1" fill-rule="nonzero"/><path fill="rgb(91.758728%, 61.569214%, 25.489807%)" d="M 354.136719 71.390625 C 364.289062 53.171875 367.207031 39.796875 367.207031 39.796875 C 367.207031 39.796875 370.949219 24.742188 367.324219 19.542969 C 363.703125 14.351562 348.269531 12.660156 348.269531 12.660156 C 348.269531 12.660156 334.714844 10.765625 314.082031 13.984375 C 314.082031 13.984375 317.019531 51.746094 354.136719 71.390625 " fill-opacity="1" fill-rule="nonzero"/><path fill="rgb(78.42865%, 74.899292%, 71.759033%)" d="M 358.285156 63.4375 C 358.464844 63.070312 358.640625 62.703125 358.8125 62.339844 C 358.816406 62.339844 358.816406 62.339844 358.816406 62.339844 C 358.640625 62.703125 358.464844 63.070312 358.285156 63.4375 " fill-opacity="1" fill-rule="nonzero"/><path fill="rgb(82.749939%, 82.348633%, 82.348633%)" d="M 357.753906 14.496094 C 357.582031 14.449219 357.40625 14.398438 357.234375 14.355469 C 357.40625 14.398438 357.582031 14.449219 357.753906 14.492188 " fill-opacity="1" fill-rule="nonzero"/><path fill="rgb(75.689697%, 50.19989%, 20.779419%)" d="M 357.527344 64.972656 C 357.53125 64.960938 357.535156 64.949219 357.542969 64.941406 C 357.542969 64.941406 328.609375 51.949219 320.773438 13.082031 C 318.644531 13.324219 316.402344 13.617188 314.082031 13.984375 C 323.566406 12.503906 331.550781 12.105469 337.414062 12.105469 C 344.308594 12.105469 348.269531 12.660156 348.269531 12.660156 C 348.3125 12.664062 352.636719 13.140625 357.234375 14.355469 C 357.40625 14.398438 357.582031 14.449219 357.753906 14.496094 C 351.855469 17.917969 346.398438 22.722656 342.761719 28.429688 C 337.738281 36.316406 339.683594 47.320312 344.460938 54.773438 C 347.710938 59.859375 353.140625 62.003906 358.8125 62.339844 C 358.640625 62.703125 358.464844 63.070312 358.285156 63.4375 C 358.035156 63.945312 357.785156 64.460938 357.527344 64.972656 " fill-opacity="1" fill-rule="nonzero"/><path fill="rgb(48.629761%, 10.978699%, 12.939453%)" d="M 258.507812 97.953125 C 258.503906 97.949219 258.5 97.945312 258.496094 97.933594 C 258.5 97.945312 258.5 97.949219 258.507812 97.953125 M 258.480469 97.917969 C 258.472656 97.910156 258.464844 97.898438 258.449219 97.886719 C 258.464844 97.898438 258.472656 97.910156 258.480469 97.917969 M 258.449219 97.882812 C 258.039062 97.375 257.640625 96.851562 257.261719 96.308594 C 257.640625 96.851562 258.039062 97.375 258.449219 97.882812 M 257.261719 96.308594 C 257.25 96.292969 257.242188 96.28125 257.230469 96.265625 C 253.945312 91.554688 252.371094 86.160156 252.371094 80.820312 C 252.371094 86.160156 253.945312 91.554688 257.230469 96.265625 C 257.242188 96.28125 257.25 96.292969 257.261719 96.308594 " fill-opacity="1" fill-rule="nonzero"/><path fill="rgb(28.239441%, 69.799805%, 64.309692%)" d="M 271.683594 106.703125 C 266.65625 105.207031 262.03125 102.253906 258.507812 97.953125 C 258.5 97.949219 258.5 97.945312 258.496094 97.933594 C 258.492188 97.929688 258.484375 97.925781 258.480469 97.917969 C 258.472656 97.910156 258.464844 97.898438 258.449219 97.886719 L 258.449219 97.882812 C 258.039062 97.375 257.640625 96.851562 257.261719 96.308594 C 257.25 96.292969 257.242188 96.28125 257.230469 96.265625 C 253.945312 91.554688 252.371094 86.160156 252.371094 80.820312 C 252.375 72.28125 256.410156 63.882812 263.953125 58.628906 C 268.664062 55.347656 274.054688 53.773438 279.390625 53.773438 C 284.851562 53.773438 290.253906 55.417969 294.816406 58.574219 C 292.421875 60.113281 290.152344 61.835938 288.023438 63.742188 C 287.386719 64.308594 286.761719 64.882812 286.148438 65.464844 C 285.859375 65.453125 285.5625 65.445312 285.269531 65.445312 C 281.976562 65.445312 278.644531 66.417969 275.734375 68.441406 C 268.371094 73.578125 266.410156 83.5625 271.164062 91.066406 C 270.191406 96.339844 270.472656 101.609375 271.683594 106.703125 M 267.933594 62.421875 C 267.105469 62.421875 266.269531 62.667969 265.539062 63.171875 C 263.640625 64.496094 263.179688 67.097656 264.5 68.996094 C 265.316406 70.164062 266.617188 70.789062 267.9375 70.789062 C 268.761719 70.789062 269.597656 70.542969 270.324219 70.03125 C 272.21875 68.710938 272.6875 66.105469 271.367188 64.210938 C 270.554688 63.046875 269.253906 62.421875 267.933594 62.421875 " fill-opacity="1" fill-rule="nonzero"/><path fill="rgb(51.368713%, 83.529663%, 77.249146%)" d="M 285.296875 98.839844 C 280.023438 98.839844 274.832031 96.347656 271.582031 91.695312 C 271.433594 91.484375 271.300781 91.277344 271.164062 91.066406 C 271.308594 90.285156 271.480469 89.503906 271.679688 88.722656 C 274.070312 79.4375 279.339844 71.953125 286.148438 65.464844 C 291.117188 65.726562 295.921875 68.191406 298.988281 72.59375 C 304.261719 80.15625 302.410156 90.566406 294.839844 95.835938 C 291.925781 97.867188 288.597656 98.839844 285.296875 98.839844 " fill-opacity="1" fill-rule="nonzero"/><path fill="rgb(48.239136%, 78.42865%, 72.938538%)" d="M 271.164062 91.066406 C 266.410156 83.5625 268.371094 73.578125 275.734375 68.441406 C 278.644531 66.417969 281.976562 65.445312 285.269531 65.445312 C 285.5625 65.445312 285.859375 65.453125 286.148438 65.464844 C 279.339844 71.953125 274.070312 79.4375 271.679688 88.722656 C 271.480469 89.503906 271.308594 90.285156 271.164062 91.066406 " fill-opacity="1" fill-rule="nonzero"/><path fill="rgb(48.239136%, 78.42865%, 72.938538%)" d="M 267.9375 70.789062 C 266.617188 70.789062 265.316406 70.164062 264.5 68.996094 C 263.179688 67.097656 263.640625 64.496094 265.539062 63.171875 C 266.269531 62.667969 267.105469 62.421875 267.933594 62.421875 C 269.253906 62.421875 270.554688 63.046875 271.367188 64.210938 C 272.6875 66.105469 272.21875 68.710938 270.324219 70.03125 C 269.597656 70.542969 268.761719 70.789062 267.9375 70.789062 " fill-opacity="1" fill-rule="nonzero"/><path fill="rgb(78.039551%, 15.289307%, 22.749329%)" d="M 320.773438 13.082031 C 318.644531 13.324219 316.402344 13.617188 314.082031 13.984375 C 314.082031 13.984375 317.019531 51.746094 354.136719 71.390625 C 355.636719 68.703125 356.347656 67.386719 357.542969 64.941406 C 357.542969 64.941406 328.609375 51.949219 320.773438 13.082031 " fill-opacity="1" fill-rule="nonzero"/><path fill="rgb(65.098572%, 12.548828%, 18.429565%)" d="M 318.300781 20.375 C 317.621094 20.375 316.960938 20.058594 316.546875 19.460938 C 315.863281 18.492188 316.105469 17.152344 317.078125 16.476562 C 317.449219 16.21875 317.875 16.09375 318.296875 16.09375 C 318.976562 16.09375 319.640625 16.414062 320.058594 17.011719 C 320.742188 17.976562 320.503906 19.3125 319.527344 19.988281 C 319.15625 20.25 318.726562 20.375 318.300781 20.375 " fill-opacity="1" fill-rule="nonzero"/><path fill="rgb(82.749939%, 82.348633%, 82.348633%)" d="M 319.425781 19.835938 C 318.542969 20.457031 317.316406 20.242188 316.699219 19.359375 C 316.078125 18.46875 316.296875 17.242188 317.179688 16.625 C 318.066406 16.011719 319.292969 16.226562 319.910156 17.117188 C 320.53125 18 320.316406 19.21875 319.425781 19.835938 " fill-opacity="1" fill-rule="nonzero"/><path fill="rgb(91.369629%, 91.369629%, 91.369629%)" d="M 317.890625 19.683594 C 317.238281 18.40625 317.800781 16.964844 318.984375 16.402344 C 318.398438 16.1875 317.722656 16.25 317.179688 16.625 C 316.296875 17.242188 316.078125 18.46875 316.699219 19.359375 C 317.0625 19.878906 317.636719 20.15625 318.226562 20.179688 C 318.105469 20.03125 317.988281 19.859375 317.890625 19.683594 " fill-opacity="1" fill-rule="nonzero"/><path fill="rgb(64.709473%, 63.919067%, 64.309692%)" d="M 319.054688 19.316406 C 318.457031 19.734375 317.632812 19.585938 317.222656 18.992188 C 316.800781 18.394531 316.957031 17.566406 317.546875 17.152344 C 318.140625 16.734375 318.972656 16.878906 319.386719 17.484375 C 319.808594 18.074219 319.65625 18.902344 319.054688 19.316406 " fill-opacity="1" fill-rule="nonzero"/><path fill="rgb(74.119568%, 73.728943%, 73.728943%)" d="M 319.003906 19.234375 C 318.449219 19.625 317.691406 19.488281 317.300781 18.9375 C 316.914062 18.378906 317.050781 17.621094 317.605469 17.234375 C 318.15625 16.847656 318.921875 16.976562 319.304688 17.535156 C 319.699219 18.089844 319.554688 18.851562 319.003906 19.234375 " fill-opacity="1" fill-rule="nonzero"/><path fill="rgb(64.709473%, 63.919067%, 64.309692%)" d="M 317.742188 18.859375 L 317.472656 18.820312 L 317.519531 18.542969 L 318.863281 17.605469 L 319.140625 17.65625 L 319.09375 17.925781 L 317.742188 18.859375 " fill-opacity="1" fill-rule="nonzero"/><path fill="rgb(64.709473%, 63.919067%, 64.309692%)" d="M 317.675781 17.671875 L 317.722656 17.402344 L 317.992188 17.445312 L 318.933594 18.792969 L 318.886719 19.066406 L 318.609375 19.015625 L 317.675781 17.671875 " fill-opacity="1" fill-rule="nonzero"/><path fill="rgb(65.098572%, 12.548828%, 18.429565%)" d="M 321.234375 29.75 C 320.554688 29.75 319.890625 29.433594 319.476562 28.835938 C 318.800781 27.867188 319.039062 26.53125 320.007812 25.847656 C 320.378906 25.59375 320.804688 25.46875 321.230469 25.46875 C 321.910156 25.46875 322.578125 25.789062 323 26.386719 C 323.671875 27.355469 323.429688 28.691406 322.46875 29.363281 C 322.09375 29.625 321.660156 29.75 321.234375 29.75 " fill-opacity="1" fill-rule="nonzero"/><path fill="rgb(82.749939%, 82.348633%, 82.348633%)" d="M 322.363281 29.214844 C 321.476562 29.832031 320.25 29.617188 319.632812 28.734375 C 319.011719 27.84375 319.230469 26.621094 320.113281 26.003906 C 321.011719 25.382812 322.226562 25.605469 322.847656 26.496094 C 323.464844 27.382812 323.246094 28.59375 322.363281 29.214844 " fill-opacity="1" fill-rule="nonzero"/><path fill="rgb(91.369629%, 91.369629%, 91.369629%)" d="M 320.832031 29.054688 C 320.171875 27.785156 320.742188 26.339844 321.917969 25.777344 C 321.332031 25.5625 320.664062 25.625 320.113281 26.003906 C 319.230469 26.621094 319.011719 27.84375 319.632812 28.734375 C 319.996094 29.25 320.574219 29.535156 321.164062 29.558594 C 321.035156 29.402344 320.917969 29.242188 320.832031 29.054688 " fill-opacity="1" fill-rule="nonzero"/><path fill="rgb(64.709473%, 63.919067%, 64.309692%)" d="M 321.996094 28.691406 C 321.398438 29.109375 320.574219 28.964844 320.160156 28.363281 C 319.734375 27.765625 319.882812 26.945312 320.480469 26.527344 C 321.082031 26.109375 321.910156 26.253906 322.320312 26.859375 C 322.742188 27.449219 322.589844 28.277344 321.996094 28.691406 " fill-opacity="1" fill-rule="nonzero"/><path fill="rgb(74.119568%, 73.728943%, 73.728943%)" d="M 321.941406 28.609375 C 321.386719 29 320.617188 28.867188 320.238281 28.308594 C 319.84375 27.753906 319.988281 26.992188 320.539062 26.605469 C 321.097656 26.222656 321.855469 26.355469 322.242188 26.90625 C 322.636719 27.460938 322.492188 28.226562 321.941406 28.609375 " fill-opacity="1" fill-rule="nonzero"/><path fill="rgb(64.709473%, 63.919067%, 64.309692%)" d="M 320.679688 28.242188 L 320.40625 28.195312 L 320.453125 27.917969 L 321.792969 26.980469 L 322.074219 27.03125 L 322.023438 27.300781 L 320.679688 28.242188 " fill-opacity="1" fill-rule="nonzero"/><path fill="rgb(64.709473%, 63.919067%, 64.309692%)" d="M 320.605469 27.046875 L 320.660156 26.777344 L 320.929688 26.824219 L 321.863281 28.167969 L 321.820312 28.441406 L 321.550781 28.394531 L 320.605469 27.046875 " fill-opacity="1" fill-rule="nonzero"/><path fill="rgb(65.098572%, 12.548828%, 18.429565%)" d="M 325.988281 40.300781 C 325.3125 40.300781 324.648438 39.984375 324.234375 39.386719 C 323.550781 38.414062 323.789062 37.082031 324.761719 36.40625 C 325.132812 36.144531 325.5625 36.015625 325.988281 36.015625 C 326.667969 36.015625 327.328125 36.339844 327.742188 36.941406 C 328.425781 37.902344 328.183594 39.238281 327.210938 39.917969 C 326.839844 40.179688 326.410156 40.300781 325.988281 40.300781 " fill-opacity="1" fill-rule="nonzero"/><path fill="rgb(82.749939%, 82.348633%, 82.348633%)" d="M 327.113281 39.769531 C 326.222656 40.382812 324.996094 40.167969 324.382812 39.285156 C 323.761719 38.394531 323.980469 37.171875 324.863281 36.554688 C 325.753906 35.9375 326.976562 36.152344 327.59375 37.042969 C 328.210938 37.925781 328 39.148438 327.113281 39.769531 " fill-opacity="1" fill-rule="nonzero"/><path fill="rgb(91.369629%, 91.369629%, 91.369629%)" d="M 325.574219 39.605469 C 324.921875 38.332031 325.480469 36.886719 326.667969 36.324219 C 326.085938 36.109375 325.414062 36.171875 324.863281 36.554688 C 323.980469 37.171875 323.761719 38.394531 324.382812 39.285156 C 324.75 39.804688 325.316406 40.085938 325.910156 40.109375 C 325.789062 39.957031 325.667969 39.796875 325.574219 39.605469 " fill-opacity="1" fill-rule="nonzero"/><path fill="rgb(64.709473%, 63.919067%, 64.309692%)" d="M 326.738281 39.242188 C 326.144531 39.65625 325.316406 39.507812 324.910156 38.917969 C 324.488281 38.320312 324.632812 37.496094 325.230469 37.078125 C 325.832031 36.660156 326.660156 36.804688 327.070312 37.40625 C 327.488281 38 327.339844 38.828125 326.738281 39.242188 " fill-opacity="1" fill-rule="nonzero"/><path fill="rgb(74.119568%, 73.728943%, 73.728943%)" d="M 326.691406 39.160156 C 326.132812 39.546875 325.371094 39.414062 324.984375 38.859375 C 324.59375 38.308594 324.734375 37.542969 325.285156 37.15625 C 325.839844 36.773438 326.605469 36.90625 326.988281 37.457031 C 327.382812 38.015625 327.238281 38.773438 326.691406 39.160156 " fill-opacity="1" fill-rule="nonzero"/><path fill="rgb(64.709473%, 63.919067%, 64.309692%)" d="M 325.429688 38.789062 L 325.148438 38.746094 L 325.199219 38.46875 L 326.546875 37.527344 L 326.828125 37.578125 L 326.777344 37.851562 L 325.429688 38.789062 " fill-opacity="1" fill-rule="nonzero"/><path fill="rgb(64.709473%, 63.919067%, 64.309692%)" d="M 325.355469 37.597656 L 325.40625 37.324219 L 325.679688 37.371094 L 326.617188 38.726562 L 326.570312 38.996094 L 326.289062 38.945312 L 325.355469 37.597656 " fill-opacity="1" fill-rule="nonzero"/><path fill="rgb(65.098572%, 12.548828%, 18.429565%)" d="M 332.769531 50.707031 C 332.089844 50.707031 331.429688 50.386719 331.015625 49.792969 C 330.335938 48.820312 330.570312 47.488281 331.542969 46.8125 C 331.917969 46.550781 332.34375 46.425781 332.769531 46.425781 C 333.441406 46.425781 334.109375 46.742188 334.527344 47.339844 C 335.203125 48.3125 334.972656 49.648438 333.996094 50.320312 C 333.617188 50.582031 333.1875 50.707031 332.769531 50.707031 " fill-opacity="1" fill-rule="nonzero"/><path fill="rgb(82.749939%, 82.348633%, 82.348633%)" d="M 333.882812 50.167969 C 332.996094 50.792969 331.785156 50.574219 331.15625 49.6875 C 330.539062 48.796875 330.761719 47.578125 331.652344 46.960938 C 332.53125 46.34375 333.757812 46.558594 334.378906 47.449219 C 334.992188 48.332031 334.773438 49.550781 333.882812 50.167969 " fill-opacity="1" fill-rule="nonzero"/><path fill="rgb(91.369629%, 91.369629%, 91.369629%)" d="M 332.355469 50.011719 C 331.695312 48.742188 332.265625 47.296875 333.445312 46.734375 C 332.867188 46.515625 332.199219 46.578125 331.652344 46.960938 C 330.761719 47.578125 330.539062 48.796875 331.15625 49.6875 C 331.53125 50.210938 332.101562 50.492188 332.691406 50.515625 C 332.5625 50.367188 332.453125 50.199219 332.355469 50.011719 " fill-opacity="1" fill-rule="nonzero"/><path fill="rgb(64.709473%, 63.919067%, 64.309692%)" d="M 333.527344 49.652344 C 332.933594 50.070312 332.097656 49.921875 331.679688 49.324219 C 331.269531 48.726562 331.417969 47.902344 332.011719 47.484375 C 332.609375 47.070312 333.4375 47.214844 333.851562 47.8125 C 334.277344 48.410156 334.128906 49.230469 333.527344 49.652344 " fill-opacity="1" fill-rule="nonzero"/><path fill="rgb(74.119568%, 73.728943%, 73.728943%)" d="M 333.46875 49.570312 C 332.910156 49.953125 332.152344 49.824219 331.765625 49.269531 C 331.371094 48.710938 331.519531 47.945312 332.070312 47.566406 C 332.621094 47.175781 333.394531 47.3125 333.769531 47.871094 C 334.160156 48.417969 334.019531 49.183594 333.46875 49.570312 " fill-opacity="1" fill-rule="nonzero"/><path fill="rgb(64.709473%, 63.919067%, 64.309692%)" d="M 332.210938 49.199219 C 332.113281 49.253906 331.996094 49.238281 331.9375 49.148438 L 331.980469 48.878906 L 333.328125 47.9375 L 333.605469 47.984375 L 333.558594 48.253906 L 332.210938 49.199219 " fill-opacity="1" fill-rule="nonzero"/><path fill="rgb(64.709473%, 63.919067%, 64.309692%)" d="M 332.140625 48.003906 L 332.1875 47.730469 L 332.460938 47.777344 L 333.402344 49.125 L 333.351562 49.398438 L 333.070312 49.355469 L 332.140625 48.003906 " fill-opacity="1" fill-rule="nonzero"/><path fill="rgb(65.098572%, 12.548828%, 18.429565%)" d="M 341.210938 60.152344 C 340.539062 60.152344 339.871094 59.835938 339.449219 59.238281 C 338.773438 58.261719 339.011719 56.933594 339.984375 56.257812 C 340.363281 55.996094 340.785156 55.875 341.207031 55.875 C 341.882812 55.875 342.542969 56.191406 342.964844 56.789062 C 343.644531 57.761719 343.402344 59.097656 342.429688 59.769531 C 342.058594 60.03125 341.632812 60.152344 341.210938 60.152344 " fill-opacity="1" fill-rule="nonzero"/><path fill="rgb(82.749939%, 82.348633%, 82.348633%)" d="M 342.324219 59.613281 C 341.433594 60.234375 340.21875 60.015625 339.605469 59.132812 C 338.984375 58.246094 339.203125 57.027344 340.09375 56.410156 C 340.976562 55.792969 342.191406 56.011719 342.8125 56.894531 C 343.429688 57.78125 343.214844 59 342.324219 59.613281 " fill-opacity="1" fill-rule="nonzero"/><path fill="rgb(91.369629%, 91.369629%, 91.369629%)" d="M 340.804688 59.464844 C 340.140625 58.1875 340.707031 56.742188 341.886719 56.179688 C 341.304688 55.964844 340.640625 56.027344 340.09375 56.410156 C 339.203125 57.027344 338.984375 58.246094 339.605469 59.132812 C 339.964844 59.65625 340.539062 59.933594 341.132812 59.960938 C 341.007812 59.808594 340.898438 59.648438 340.804688 59.464844 " fill-opacity="1" fill-rule="nonzero"/><path fill="rgb(64.709473%, 63.919067%, 64.309692%)" d="M 341.964844 59.097656 C 341.367188 59.511719 340.539062 59.367188 340.121094 58.765625 C 339.699219 58.171875 339.851562 57.347656 340.460938 56.925781 C 341.050781 56.511719 341.878906 56.660156 342.285156 57.253906 C 342.710938 57.859375 342.566406 58.679688 341.964844 59.097656 " fill-opacity="1" fill-rule="nonzero"/><path fill="rgb(74.119568%, 73.728943%, 73.728943%)" d="M 341.90625 59.015625 C 341.347656 59.40625 340.589844 59.269531 340.203125 58.707031 C 339.8125 58.15625 339.949219 57.398438 340.511719 57.011719 C 341.0625 56.625 341.824219 56.753906 342.214844 57.316406 C 342.601562 57.871094 342.464844 58.628906 341.90625 59.015625 " fill-opacity="1" fill-rule="nonzero"/><path fill="rgb(64.709473%, 63.919067%, 64.309692%)" d="M 340.644531 58.644531 L 340.375 58.59375 L 340.421875 58.324219 L 341.773438 57.382812 L 342.042969 57.433594 L 341.988281 57.699219 L 340.644531 58.644531 " fill-opacity="1" fill-rule="nonzero"/><path fill="rgb(64.709473%, 63.919067%, 64.309692%)" d="M 340.578125 57.449219 L 340.628906 57.179688 L 340.898438 57.230469 L 341.835938 58.578125 L 341.789062 58.847656 L 341.519531 58.800781 L 340.578125 57.449219 " fill-opacity="1" fill-rule="nonzero"/><path fill="rgb(65.098572%, 12.548828%, 18.429565%)" d="M 351.027344 67.683594 C 350.351562 67.683594 349.683594 67.359375 349.273438 66.761719 C 348.59375 65.792969 348.820312 64.460938 349.8125 63.777344 C 350.179688 63.519531 350.605469 63.394531 351.023438 63.394531 C 351.703125 63.394531 352.371094 63.714844 352.78125 64.316406 C 353.46875 65.285156 353.226562 66.617188 352.253906 67.292969 C 351.878906 67.554688 351.453125 67.683594 351.027344 67.683594 " fill-opacity="1" fill-rule="nonzero"/><path fill="rgb(82.749939%, 82.348633%, 82.348633%)" d="M 352.152344 67.144531 C 351.261719 67.765625 350.046875 67.546875 349.417969 66.65625 C 348.800781 65.773438 349.027344 64.554688 349.910156 63.933594 C 350.796875 63.320312 352.019531 63.53125 352.636719 64.417969 C 353.253906 65.304688 353.035156 66.523438 352.152344 67.144531 " fill-opacity="1" fill-rule="nonzero"/><path fill="rgb(91.369629%, 91.369629%, 91.369629%)" d="M 350.613281 66.988281 C 349.960938 65.714844 350.53125 64.261719 351.707031 63.703125 C 351.132812 63.492188 350.457031 63.554688 349.910156 63.933594 C 349.027344 64.554688 348.800781 65.773438 349.417969 66.65625 C 349.78125 67.179688 350.367188 67.460938 350.953125 67.492188 C 350.824219 67.339844 350.714844 67.167969 350.613281 66.988281 " fill-opacity="1" fill-rule="nonzero"/><path fill="rgb(64.709473%, 63.919067%, 64.309692%)" d="M 351.785156 66.617188 C 351.1875 67.039062 350.367188 66.890625 349.945312 66.292969 C 349.527344 65.699219 349.675781 64.867188 350.273438 64.453125 C 350.871094 64.039062 351.695312 64.1875 352.121094 64.78125 C 352.527344 65.378906 352.382812 66.203125 351.785156 66.617188 " fill-opacity="1" fill-rule="nonzero"/><path fill="rgb(74.119568%, 73.728943%, 73.728943%)" d="M 351.726562 66.539062 C 351.175781 66.929688 350.414062 66.792969 350.027344 66.242188 C 349.640625 65.683594 349.777344 64.917969 350.332031 64.53125 C 350.882812 64.148438 351.640625 64.285156 352.035156 64.839844 C 352.417969 65.390625 352.285156 66.15625 351.726562 66.539062 " fill-opacity="1" fill-rule="nonzero"/><path fill="rgb(64.709473%, 63.919067%, 64.309692%)" d="M 350.464844 66.167969 L 350.191406 66.117188 L 350.246094 65.84375 L 351.582031 64.910156 C 351.679688 64.84375 351.800781 64.867188 351.867188 64.957031 L 351.8125 65.226562 L 350.464844 66.167969 " fill-opacity="1" fill-rule="nonzero"/><path fill="rgb(64.709473%, 63.919067%, 64.309692%)" d="M 350.398438 64.976562 L 350.445312 64.699219 L 350.722656 64.753906 L 351.664062 66.105469 L 351.609375 66.371094 L 351.34375 66.328125 L 350.398438 64.976562 " fill-opacity="1" fill-rule="nonzero"/><path fill="rgb(9.408569%, 21.179199%, 31.759644%)" d="M 194.429688 88.304688 L 178.40625 111.292969 C 178.40625 111.292969 184.46875 146.96875 215.871094 164.988281 L 242.988281 157.914062 L 194.429688 88.304688 " fill-opacity="1" fill-rule="nonzero"/><path fill="rgb(84.709167%, 16.079712%, 18.818665%)" d="M 238.992188 44.976562 C 238.992188 44.976562 159.828125 0.0273438 102.808594 97.75 C 102.808594 97.75 161.433594 60.789062 193.148438 90.152344 C 193.148438 90.152344 210.246094 65.007812 238.992188 44.976562 " fill-opacity="1" fill-rule="nonzero"/><path fill="rgb(65.489197%, 64.709473%, 65.098572%)" d="M 102.695312 97.828125 C 103.457031 96.535156 104.210938 95.269531 104.972656 94.023438 C 105.023438 93.96875 105.082031 93.914062 105.136719 93.863281 C 104.355469 95.136719 103.582031 96.429688 102.808594 97.75 C 102.808594 97.75 132.839844 78.816406 161.539062 78.816406 C 172.925781 78.816406 184.101562 81.792969 193.113281 90.117188 C 193.058594 90.191406 193.035156 90.226562 193.035156 90.226562 C 184.019531 81.882812 172.828125 78.894531 161.429688 78.894531 C 132.726562 78.894531 102.695312 97.828125 102.695312 97.828125 " fill-opacity="1" fill-rule="nonzero"/><path fill="rgb(55.288696%, 9.799194%, 11.369324%)" d="M 102.808594 97.75 C 103.582031 96.429688 104.355469 95.136719 105.136719 93.863281 C 116.453125 82.976562 139.582031 64.628906 166.996094 64.628906 C 178.691406 64.628906 191.171875 67.96875 203.839844 76.652344 C 197.40625 83.984375 193.679688 89.292969 193.113281 90.117188 C 184.101562 81.792969 172.925781 78.816406 161.539062 78.816406 C 132.839844 78.816406 102.808594 97.75 102.808594 97.75 " fill-opacity="1" fill-rule="nonzero"/><path fill="rgb(93.328857%, 13.729858%, 22.749329%)" d="M 130.640625 70.421875 C 139.578125 63.601562 149.054688 57.535156 159.679688 53.667969 C 169.371094 50.148438 179.804688 48.140625 190.128906 48.109375 C 201.160156 48.082031 211.855469 49.832031 222.3125 53.324219 C 223.636719 53.769531 224.945312 54.238281 226.261719 54.738281 C 230.199219 51.433594 234.449219 48.140625 238.992188 44.976562 C 238.992188 44.976562 160.5625 0.453125 103.605469 96.402344 C 111.277344 86.53125 120.738281 77.980469 130.640625 70.421875 " fill-opacity="1" fill-rule="nonzero"/><path fill="rgb(84.709167%, 16.079712%, 18.818665%)" d="M 299.046875 131.0625 C 299.046875 131.0625 313.867188 220.839844 202.410156 240.53125 C 202.410156 240.53125 257.378906 198.328125 240.78125 158.4375 C 240.78125 158.4375 270.292969 151.097656 299.046875 131.0625 " fill-opacity="1" fill-rule="nonzero"/><path fill="rgb(65.489197%, 64.709473%, 65.098572%)" d="M 202.292969 240.609375 C 202.292969 240.609375 257.261719 198.40625 240.667969 158.519531 L 240.804688 158.484375 C 257.34375 198.363281 202.410156 240.53125 202.410156 240.53125 C 203.90625 240.265625 205.382812 239.988281 206.835938 239.699219 C 206.773438 239.726562 206.71875 239.753906 206.660156 239.785156 C 205.230469 240.070312 203.773438 240.347656 202.292969 240.609375 " fill-opacity="1" fill-rule="nonzero"/><path fill="rgb(5.488586%, 13.729858%, 20.388794%)" d="M 240.667969 158.519531 C 240.664062 158.519531 240.664062 158.519531 240.664062 158.515625 C 240.664062 158.515625 240.710938 158.503906 240.804688 158.480469 L 240.804688 158.484375 L 240.667969 158.519531 " fill-opacity="1" fill-rule="nonzero"/><path fill="rgb(55.288696%, 9.799194%, 11.369324%)" d="M 202.410156 240.53125 C 202.410156 240.53125 257.34375 198.363281 240.804688 158.484375 L 240.804688 158.480469 C 241.789062 158.226562 248.050781 156.5625 257.152344 153.066406 C 269.78125 202.875 226.980469 229.949219 206.835938 239.699219 C 205.382812 239.988281 203.90625 240.265625 202.410156 240.53125 " fill-opacity="1" fill-rule="nonzero"/><path fill="rgb(93.328857%, 13.729858%, 22.749329%)" d="M 237.6875 223.875 C 247.179688 217.847656 256.160156 211.066406 263.453125 202.433594 C 270.109375 194.566406 275.605469 185.476562 279.203125 175.804688 C 283.050781 165.46875 285.105469 154.828125 285.433594 143.8125 C 285.476562 142.425781 285.496094 141.03125 285.480469 139.628906 C 289.933594 137.074219 294.5 134.230469 299.046875 131.0625 C 299.046875 131.0625 313.722656 220.011719 203.945312 240.246094 C 215.867188 236.464844 227.164062 230.546875 237.6875 223.875 " fill-opacity="1" fill-rule="nonzero"/><path fill="rgb(69.018555%, 16.079712%, 19.60907%)" d="M 204.949219 157.253906 C 204.726562 157.0625 204.507812 156.871094 204.289062 156.679688 C 204.511719 156.871094 204.726562 157.058594 204.949219 157.253906 M 204.289062 156.679688 C 204.285156 156.675781 204.277344 156.667969 204.273438 156.664062 C 204.277344 156.671875 204.28125 156.671875 204.289062 156.679688 " fill-opacity="1" fill-rule="nonzero"/><path fill="rgb(6.669617%, 15.689087%, 23.139954%)" d="M 204.949219 157.253906 C 204.726562 157.058594 204.511719 156.871094 204.289062 156.679688 C 204.28125 156.671875 204.277344 156.671875 204.273438 156.664062 C 201.273438 154.015625 198.609375 151.222656 196.242188 148.367188 L 201.480469 144.957031 C 202.101562 149.199219 203.246094 153.375 204.949219 157.253906 " fill-opacity="1" fill-rule="nonzero"/><path fill="rgb(64.709473%, 61.178589%, 48.239136%)" d="M 209.625 110.082031 L 194.449219 88.332031 L 209.628906 110.078125 C 209.628906 110.078125 209.625 110.082031 209.625 110.082031 " fill-opacity="1" fill-rule="nonzero"/><path fill="rgb(6.669617%, 15.689087%, 23.139954%)" d="M 188.421875 137.117188 C 180.503906 123.480469 178.421875 111.386719 178.40625 111.292969 L 193.144531 90.144531 C 193.144531 90.148438 193.144531 90.148438 193.148438 90.152344 C 193.148438 90.152344 193.589844 89.503906 194.449219 88.332031 L 209.625 110.082031 C 206.125 115.261719 203.3125 120.929688 201.988281 127.023438 L 188.421875 137.117188 " fill-opacity="1" fill-rule="nonzero"/><path fill="rgb(62.748718%, 11.369324%, 13.328552%)" d="M 193.148438 90.152344 C 193.144531 90.148438 193.144531 90.148438 193.144531 90.144531 L 194.429688 88.304688 L 194.449219 88.332031 C 193.589844 89.503906 193.148438 90.152344 193.148438 90.152344 " fill-opacity="1" fill-rule="nonzero"/><path fill="rgb(9.01947%, 35.688782%, 45.489502%)" d="M 176.734375 161.054688 L 237.339844 121.636719 C 241.152344 118.984375 242.078125 113.746094 239.4375 109.949219 C 236.78125 106.144531 231.546875 105.210938 227.738281 107.867188 L 169.742188 151.015625 C 169.742188 151.015625 164.066406 155.648438 167.863281 159.820312 C 167.863281 159.820312 170.765625 164.070312 176.734375 161.054688 " fill-opacity="1" fill-rule="nonzero"/><path fill="rgb(5.488586%, 22.749329%, 29.019165%)" d="M 172.671875 162.136719 C 169.445312 162.132812 167.863281 159.820312 167.863281 159.820312 L 167.726562 159.664062 L 239.304688 109.78125 L 239.4375 109.949219 C 240.453125 111.410156 240.941406 113.085938 240.9375 114.746094 C 240.9375 117.394531 239.683594 120.007812 237.339844 121.636719 L 201.480469 144.957031 L 196.242188 148.367188 L 186.777344 154.523438 L 176.734375 161.054688 C 175.171875 161.84375 173.816406 162.136719 172.671875 162.136719 " fill-opacity="1" fill-rule="nonzero"/></svg>